<svg width="146" height="40" viewBox="0 0 146 40" fill="none" xmlns="http://www.w3.org/2000/svg">
<path d="M54.7771 7.30032H59.9307L54.3147 31.4705H45.2509L39.6349 7.30032H44.7888L48.9833 27.2052H50.5826L54.7771 7.30032Z" fill="#0F172A"/>
<path d="M64.8446 24.6104C64.8682 25.7004 65.1525 26.4942 65.6975 26.9918C66.2662 27.4658 67.0719 27.7027 68.1147 27.7027C70.3183 27.7027 72.2852 27.6317 74.015 27.4895L75.0102 27.3829L75.0814 30.9019C72.3564 31.5653 69.8917 31.8971 67.688 31.8971C65.0106 31.8971 63.0673 31.1862 61.8589 29.7643C60.6502 28.3426 60.0461 26.0321 60.0461 22.8332C60.0461 16.4589 62.6646 13.2717 67.9012 13.2717C73.0669 13.2717 75.65 15.9494 75.65 21.3047L75.2945 24.6104H64.8446ZM70.9581 20.9849C70.9581 19.5631 70.7331 18.5797 70.2829 18.0347C69.8327 17.466 69.0388 17.1816 67.9012 17.1816C66.7876 17.1816 65.9937 17.4778 65.5198 18.0702C65.0696 18.6389 64.8328 19.6105 64.8089 20.9849H70.9581Z" fill="#0F172A"/>
<path d="M78.3433 31.4705V13.6983H83.0706V15.5821C85.0611 14.3973 86.9568 13.6272 88.7577 13.2717V18.0702C86.8381 18.4731 85.1912 18.8877 83.8169 19.3143L83.106 19.5631V31.4705H78.3433Z" fill="#0F172A"/>
<path d="M100.703 17.7504H96.331V25.0369C96.331 25.7478 96.3428 26.2573 96.3667 26.5653C96.4139 26.8497 96.5445 27.0985 96.7576 27.3118C96.9947 27.525 97.3498 27.6317 97.824 27.6317L100.525 27.5606L100.739 31.364C99.1508 31.7194 97.9424 31.8972 97.1131 31.8972C94.9803 31.8972 93.523 31.423 92.7412 30.4753C91.9591 29.5036 91.5682 27.7264 91.5682 25.1436V17.7504H89.4708V13.6983H91.5682V8.7576H96.331V13.6983H100.703V17.7504Z" fill="#0F172A"/>
<path d="M103.094 31.4705V13.6983H107.857V31.4705H103.094ZM103.094 11.4235V6.58942H107.857V11.4235H103.094Z" fill="#0F172A"/>
<path d="M127.648 33.6742C127.648 35.7122 126.866 37.2167 125.302 38.1883C123.738 39.16 121.617 39.6456 118.94 39.6456C116.286 39.6456 114.236 39.2902 112.791 38.5792C111.369 37.8683 110.658 36.5769 110.658 34.7052C110.658 33.2121 111.511 31.802 113.217 30.4753C112.34 29.8827 111.902 28.9822 111.902 27.7739C111.902 27.2999 112.257 26.5179 112.968 25.4279L113.288 24.9303C111.677 23.7692 110.871 22.063 110.871 19.8119C110.871 17.5371 111.546 15.8902 112.897 14.8712C114.271 13.8523 116.084 13.3428 118.335 13.3428C119.354 13.3428 120.362 13.4613 121.357 13.6983L121.926 13.8049L127.648 13.6272V17.4304L124.982 17.2172C125.503 18.0228 125.764 18.8285 125.764 19.6342C125.764 22.0038 125.16 23.6388 123.951 24.5393C122.743 25.4398 120.847 25.89 118.264 25.89C117.719 25.89 117.234 25.8426 116.807 25.7478C116.57 26.3639 116.452 26.8734 116.452 27.2762C116.452 27.6554 116.653 27.916 117.056 28.0582C117.459 28.2004 118.407 28.2833 119.899 28.307C122.885 28.3307 124.923 28.7335 126.013 29.5154C127.103 30.2739 127.648 31.6601 127.648 33.6742ZM115.35 34.2074C115.35 35.2262 116.594 35.7358 119.082 35.7358C121.594 35.7358 122.85 35.1432 122.85 33.9585C122.85 33.3187 122.636 32.9042 122.21 32.7147C121.783 32.5487 120.883 32.454 119.508 32.43L116.31 32.1815C115.67 32.8212 115.35 33.4964 115.35 34.2074ZM115.634 19.6697C115.634 21.3996 116.534 22.2645 118.335 22.2645C120.16 22.2645 121.072 21.3996 121.072 19.6697C121.072 17.9162 120.16 17.0394 118.335 17.0394C116.534 17.0394 115.634 17.9162 115.634 19.6697Z" fill="#0F172A"/>
<path d="M130.782 15.7243C132.038 14.0892 134.135 13.2717 137.074 13.2717C140.012 13.2717 142.109 14.0892 143.365 15.7243C144.621 17.3356 145.249 19.6105 145.249 22.5488C145.249 28.7809 142.524 31.8971 137.074 31.8971C131.624 31.8971 128.899 28.7809 128.899 22.5488C128.899 19.6105 129.527 17.3356 130.782 15.7243ZM134.444 26.5653C134.941 27.4184 135.818 27.8449 137.074 27.8449C138.33 27.8449 139.194 27.4184 139.669 26.5653C140.166 25.7123 140.415 24.3734 140.415 22.5488C140.415 20.7242 140.166 19.3972 139.669 18.5678C139.194 17.7385 138.33 17.3238 137.074 17.3238C135.818 17.3238 134.941 17.7385 134.444 18.5678C133.97 19.3972 133.733 20.7242 133.733 22.5488C133.733 24.3734 133.97 25.7123 134.444 26.5653Z" fill="#0F172A"/>
<path fill-rule="evenodd" clip-rule="evenodd" d="M21.5694 5.94468C19.4409 5.06301 17.1381 4.68283 14.8392 4.83349C12.5402 4.98419 10.3068 5.6617 8.31157 6.81361L6.29847 7.97586L3.97397 3.94972L5.98706 2.78747C8.59984 1.27901 11.5246 0.391761 14.5351 0.194464C17.5456 -0.00286856 20.5611 0.495004 23.3485 1.64953C26.1357 2.80409 28.6201 4.58434 30.6094 6.85263C32.5984 9.12088 34.0393 11.8164 34.8203 14.7305C35.601 17.6447 35.7011 20.6994 35.1125 23.6584C34.5238 26.6174 33.2625 29.4014 31.4258 31.7949C29.5891 34.1884 27.2267 36.1274 24.5208 37.4617C21.815 38.796 18.3249 39.4901 15.8215 39.4901C13.3181 39.4901 11.8563 39.1146 9.93668 38.3196C8.071 37.5468 6.37583 36.4142 4.94787 34.9863C3.51994 33.5583 2.38727 31.8629 1.61446 29.9972C0.841685 28.1316 0.443909 26.132 0.443909 24.1126C0.443909 22.0932 0.841685 20.0936 1.61446 18.2279C2.38727 16.3622 3.51994 14.667 4.94787 13.2391C6.37583 11.8112 8.071 10.6784 9.93668 9.90567C11.8024 9.13286 13.802 8.73512 15.8214 8.73512C17.8408 8.73512 19.8404 9.13286 21.7061 9.90567C23.5718 10.6784 25.267 11.8112 26.6949 13.2391C28.1228 14.667 29.2554 16.3622 30.0283 18.2279C30.3608 19.0304 30.6237 19.8577 30.8157 20.7007C30.9094 19.1004 30.7467 17.4908 30.3297 15.9338C29.7332 13.7084 28.6331 11.65 27.114 9.91793C25.595 8.18578 23.6978 6.82631 21.5694 5.94468ZM6.53675 29.4879C6.80042 24.4901 10.9365 20.5186 16.0002 20.5186C20.8681 20.5186 24.8788 24.189 25.4159 28.9132C25.5297 28.6857 25.6356 28.4539 25.7332 28.2182C26.2724 26.9166 26.5499 25.5215 26.5499 24.1126C26.5499 22.7037 26.2724 21.3086 25.7332 20.007C25.1941 18.7053 24.4038 17.5227 23.4076 16.5264C22.4114 15.5302 21.2287 14.74 19.927 14.2008C18.6254 13.6616 17.2303 13.3841 15.8214 13.3841C14.4125 13.3841 13.0174 13.6616 11.7158 14.2008C10.4142 14.74 9.23146 15.5302 8.23521 16.5264C7.239 17.5227 6.44874 18.7053 5.90957 20.007C5.37043 21.3086 5.09292 22.7037 5.09292 24.1126C5.09292 25.5215 5.37043 26.9166 5.90957 28.2182C6.09084 28.6558 6.30044 29.0799 6.53675 29.4879ZM20.828 29.9954C20.828 32.6618 18.6665 34.8232 16.0002 34.8232C13.3339 34.8232 11.1724 32.6618 11.1724 29.9954C11.1724 27.3291 13.3339 25.1676 16.0002 25.1676C18.6665 25.1676 20.828 27.3291 20.828 29.9954Z" fill="#7C3AED"/>
</svg>
