<svg width="14" height="14" viewBox="0 0 14 14" fill="none" xmlns="http://www.w3.org/2000/svg">
  <defs>
    <!-- Define a clipping path to show only half the star -->
    <clipPath id="halfStarClip">
      <rect x="0" y="0" width="7" height="14" />
    </clipPath>
  </defs>
  <path d="M6.75474 0.640509C6.7919 0.567945 6.8956 0.567945 6.93276 0.640509L8.77297 4.2344C8.7875 4.26276 8.81467 4.28251 8.84614 4.28756L12.8328 4.92713C12.9133 4.94004 12.9453 5.03867 12.8878 5.09644L10.0385 7.95715C10.016 7.97973 10.0056 8.01168 10.0105 8.04317L10.6342 12.0323C10.6468 12.1129 10.5629 12.1738 10.4902 12.137L6.88897 10.3111C6.86055 10.2967 6.82695 10.2967 6.79853 10.3111L3.19733 12.137C3.12462 12.1738 3.04072 12.1129 3.05331 12.0323L3.67698 8.04317C3.68191 8.01168 3.67153 7.97973 3.64904 7.95715L0.799704 5.09644C0.742173 5.03867 0.77422 4.94004 0.854715 4.92713L4.84136 4.28756C4.87283 4.28251 4.9 4.26276 4.91453 4.2344L6.75474 0.640509Z" fill="#E9A426" clip-path="url(#halfStarClip)"/>
</svg>
