<svg width="14" height="14" viewBox="0 0 14 14" fill="none" xmlns="http://www.w3.org/2000/svg">
<path d="M6.91099 0.640509C6.94815 0.567945 7.05185 0.567945 7.08901 0.640509L8.92922 4.2344C8.94375 4.26276 8.97092 4.28251 9.00239 4.28756L12.989 4.92713C13.0695 4.94004 13.1016 5.03867 13.044 5.09644L10.1947 7.95715C10.1722 7.97973 10.1618 8.01168 10.1668 8.04317L10.7904 12.0323C10.803 12.1129 10.7191 12.1738 10.6464 12.137L7.04522 10.3111C7.0168 10.2967 6.9832 10.2967 6.95478 10.3111L3.35358 12.137C3.28087 12.1738 3.19697 12.1129 3.20956 12.0323L3.83323 8.04317C3.83816 8.01168 3.82778 7.97973 3.80529 7.95715L0.955954 5.09644C0.898423 5.03867 0.93047 4.94004 1.01096 4.92713L4.99761 4.28756C5.02908 4.28251 5.05625 4.26276 5.07078 4.2344L6.91099 0.640509Z" fill="#CACDD8"/>
</svg>
